{
	"asset":{
		"generator":"Khronos glTF Blender I/O v3.6.27",
		"version":"2.0"
	},
	"scene":0,
	"scenes":[
		{
			"name":"Scene",
			"nodes":[
				0
			]
		}
	],
	"nodes":[
		{
			"mesh":0,
			"name":"Areas.001"
		}
	],
	"meshes":[
		{
			"name":"Areas.004",
			"primitives":[
				{
					"attributes":{
						"POSITION":0,
						"NORMAL":1
					},
					"indices":2
				}
			]
		}
	],
	"accessors":[
		{
			"bufferView":0,
			"componentType":5126,
			"count":4012,
			"max":[
				-465.2934875488281,
				20,
				424.37298583984375
			],
			"min":[
				-2560.195556640625,
				0,
				-703.9728393554688
			],
			"type":"VEC3"
		},
		{
			"bufferView":1,
			"componentType":5126,
			"count":4012,
			"type":"VEC3"
		},
		{
			"bufferView":2,
			"componentType":5123,
			"count":6666,
			"type":"SCALAR"
		}
	],
	"bufferViews":[
		{
			"buffer":0,
			"byteLength":48144,
			"byteOffset":0,
			"target":34962
		},
		{
			"buffer":0,
			"byteLength":48144,
			"byteOffset":48144,
			"target":34962
		},
		{
			"buffer":0,
			"byteLength":13332,
			"byteOffset":96288,
			"target":34963
		}
	],
	"buffers":[
		{
			"byteLength":109620,
			"uri":"data:application/octet-stream;base64,"
		}
	]
}
