{
	"asset":{
		"generator":"Khronos glTF Blender I/O v3.6.27",
		"version":"2.0"
	},
	"scene":0,
	"scenes":[
		{
			"name":"Scene",
			"nodes":[
				0,
				1
			]
		}
	],
	"nodes":[
		{
			"mesh":0,
			"name":"Ways.002"
		},
		{
			"name":"NURBS \u8def\u5f84.002",
			"scale":[
				2.500000238418579,
				1,
				1
			]
		}
	],
	"meshes":[
		{
			"name":"Ways.002",
			"primitives":[
				{
					"attributes":{
						"POSITION":0,
						"NORMAL":1,
						"TEXCOORD_0":2
					},
					"indices":3
				}
			]
		}
	],
	"accessors":[
		{
			"bufferView":0,
			"componentType":5126,
			"count":26880,
			"max":[
				4936.59814453125,
				1.6689300537109375e-06,
				744.1542358398438
			],
			"min":[
				-4977.73046875,
				-1.6689300537109375e-06,
				-2040.265869140625
			],
			"type":"VEC3"
		},
		{
			"bufferView":1,
			"componentType":5126,
			"count":26880,
			"type":"VEC3"
		},
		{
			"bufferView":2,
			"componentType":5126,
			"count":26880,
			"type":"VEC2"
		},
		{
			"bufferView":3,
			"componentType":5123,
			"count":151998,
			"type":"SCALAR"
		}
	],
	"bufferViews":[
		{
			"buffer":0,
			"byteLength":322560,
			"byteOffset":0,
			"target":34962
		},
		{
			"buffer":0,
			"byteLength":322560,
			"byteOffset":322560,
			"target":34962
		},
		{
			"buffer":0,
			"byteLength":215040,
			"byteOffset":645120,
			"target":34962
		},
		{
			"buffer":0,
			"byteLength":303996,
			"byteOffset":860160,
			"target":34963
		}
	],
	"buffers":[
		{
			"byteLength":1164156,
			"uri":"data:application/octet-stream;base64,"
		}
	]
}
