{
	"asset":{
		"generator":"Khronos glTF Blender I/O v3.6.27",
		"version":"2.0"
	},
	"scene":0,
	"scenes":[
		{
			"name":"Scene",
			"nodes":[
				0,
				1
			]
		}
	],
	"nodes":[
		{
			"mesh":0,
			"name":"Ways.001"
		},
		{
			"name":"NURBS \u8def\u5f84.001",
			"scale":[
				2.500000238418579,
				1.7599999904632568,
				1
			]
		}
	],
	"meshes":[
		{
			"name":"Ways.001",
			"primitives":[
				{
					"attributes":{
						"POSITION":0,
						"NORMAL":1,
						"TEXCOORD_0":2
					},
					"indices":3
				}
			]
		}
	],
	"accessors":[
		{
			"bufferView":0,
			"componentType":5126,
			"count":39614,
			"max":[
				4936.59814453125,
				1.6689300537109375e-06,
				744.1542358398438
			],
			"min":[
				-4977.73046875,
				-1.6689300537109375e-06,
				-2040.265869140625
			],
			"type":"VEC3"
		},
		{
			"bufferView":1,
			"componentType":5126,
			"count":39614,
			"type":"VEC3"
		},
		{
			"bufferView":2,
			"componentType":5126,
			"count":39614,
			"type":"VEC2"
		},
		{
			"bufferView":3,
			"componentType":5123,
			"count":214884,
			"type":"SCALAR"
		}
	],
	"bufferViews":[
		{
			"buffer":0,
			"byteLength":475368,
			"byteOffset":0,
			"target":34962
		},
		{
			"buffer":0,
			"byteLength":475368,
			"byteOffset":475368,
			"target":34962
		},
		{
			"buffer":0,
			"byteLength":316912,
			"byteOffset":950736,
			"target":34962
		},
		{
			"buffer":0,
			"byteLength":429768,
			"byteOffset":1267648,
			"target":34963
		}
	],
	"buffers":[
		{
			"byteLength":1697416,
			"uri":"data:application/octet-stream;base64,"
		}
	]
}
